<svg width="28" height="28" viewBox="0 0 28 28" fill="none" xmlns="http://www.w3.org/2000/svg">
<path d="M24.5 6.97689C20.615 6.59189 16.7067 6.39355 12.81 6.39355C10.5 6.39355 8.19 6.51022 5.88 6.74355L3.5 6.97689" stroke="#282828" stroke-width="1.5" stroke-linecap="round" stroke-linejoin="round"/>
<path d="M9.91663 5.7985L10.1733 4.27016C10.36 3.16183 10.5 2.3335 12.4716 2.3335H15.5283C17.5 2.3335 17.6516 3.2085 17.8266 4.28183L18.0833 5.7985" stroke="#282828" stroke-width="1.5" stroke-linecap="round" stroke-linejoin="round"/>
<path d="M21.9916 10.6636L21.2333 22.4119C21.105 24.2436 21 25.6669 17.745 25.6669H10.255C6.99997 25.6669 6.89497 24.2436 6.76663 22.4119L6.0083 10.6636" stroke="#282828" stroke-width="1.5" stroke-linecap="round" stroke-linejoin="round"/>
<path d="M12.0516 19.25H15.9366" stroke="#282828" stroke-width="1.5" stroke-linecap="round" stroke-linejoin="round"/>
<path d="M11.0834 14.5835H16.9167" stroke="#282828" stroke-width="1.5" stroke-linecap="round" stroke-linejoin="round"/>
</svg>
