<svg width="20" height="20" viewBox="0 0 20 20" fill="none" xmlns="http://www.w3.org/2000/svg">
<path d="M14.9834 8.99167V12.325C14.9834 12.5417 14.9751 12.75 14.9501 12.95C14.7584 15.2 13.4334 16.3167 10.9918 16.3167H10.6584C10.4501 16.3167 10.2501 16.4167 10.1251 16.5833L9.12509 17.9167C8.68343 18.5083 7.96675 18.5083 7.52508 17.9167L6.52507 16.5833C6.41674 16.4417 6.17508 16.3167 5.99175 16.3167H5.65842C3.00009 16.3167 1.66675 15.6583 1.66675 12.325V8.99167C1.66675 6.55001 2.79176 5.22501 5.03342 5.03334C5.23342 5.00834 5.44176 5 5.65842 5H10.9918C13.6501 5 14.9834 6.33334 14.9834 8.99167Z" stroke="#31B47C" stroke-width="1.5" stroke-miterlimit="10" stroke-linecap="round" stroke-linejoin="round"/>
<path d="M18.3165 5.65867V8.992C18.3165 11.442 17.1915 12.7587 14.9499 12.9503C14.9749 12.7503 14.9832 12.542 14.9832 12.3253V8.992C14.9832 6.33367 13.6499 5.00033 10.9915 5.00033H5.6582C5.44154 5.00033 5.2332 5.00867 5.0332 5.03367C5.22487 2.792 6.54987 1.66699 8.99154 1.66699H14.3249C16.9832 1.66699 18.3165 3.00033 18.3165 5.65867Z" stroke="#31B47C" stroke-width="1.5" stroke-miterlimit="10" stroke-linecap="round" stroke-linejoin="round"/>
<path d="M11.2462 11.0417H11.2537" stroke="#31B47C" stroke-width="1.5" stroke-linecap="round" stroke-linejoin="round"/>
<path d="M8.32966 11.0417H8.33716" stroke="#31B47C" stroke-width="1.5" stroke-linecap="round" stroke-linejoin="round"/>
<path d="M5.41292 11.0417H5.42042" stroke="#31B47C" stroke-width="1.5" stroke-linecap="round" stroke-linejoin="round"/>
</svg>
