<svg width="28" height="28" viewBox="0 0 28 28" fill="none" xmlns="http://www.w3.org/2000/svg">
<g clip-path="url(#clip0_841_2398)">
<path d="M21.7643 8.88163C21.598 8.78427 21.4087 8.73295 21.216 8.73295C21.0233 8.73295 20.834 8.78427 20.6677 8.88163L18.029 10.4051V10.3895C18.0285 9.86535 17.82 9.36281 17.4493 8.99215C17.0787 8.6215 16.5761 8.41301 16.0519 8.41241H7.66467C7.14049 8.41299 6.63794 8.62147 6.26728 8.99212C5.89662 9.36276 5.68811 9.86529 5.6875 10.3895V17.6105C5.68809 18.1347 5.89659 18.6372 6.26726 19.0079C6.63792 19.3785 7.14048 19.587 7.66467 19.5876H16.0519C16.5761 19.587 17.0787 19.3785 17.4493 19.0078C17.82 18.6372 18.0285 18.1346 18.029 17.6105V17.595L20.6677 19.1184C20.8344 19.2147 21.0235 19.2653 21.2159 19.2653C21.4084 19.2653 21.5975 19.2146 21.7642 19.1184C21.9309 19.0221 22.0693 18.8837 22.1656 18.717C22.2618 18.5503 22.3125 18.3613 22.3125 18.1688V9.83123C22.3136 9.63853 22.2635 9.44901 22.1671 9.28212C22.0708 9.11523 21.9318 8.977 21.7643 8.88163ZM16.7167 17.6105C16.7165 17.7867 16.6464 17.9556 16.5218 18.0802C16.3972 18.2048 16.2282 18.2749 16.052 18.2751H7.66467C7.48846 18.2749 7.31951 18.2048 7.19491 18.0802C7.0703 17.9556 7.0002 17.7867 7 17.6105V10.3895C7.0002 10.2133 7.0703 10.0443 7.19491 9.91973C7.31951 9.79513 7.48846 9.72505 7.66467 9.72486H16.0519C16.2281 9.72506 16.3971 9.79515 16.5217 9.91974C16.6463 10.0443 16.7163 10.2133 16.7165 10.3895L16.7167 17.6105ZM21 17.7947L18.029 16.0794V11.9205L21 10.2052V17.7947ZM16.3242 10.9825C16.3242 11.1566 16.2551 11.3235 16.132 11.4465C16.0089 11.5696 15.842 11.6388 15.668 11.6388H13.5326C13.3585 11.6388 13.1916 11.5696 13.0685 11.4465C12.9455 11.3235 12.8763 11.1566 12.8763 10.9825C12.8763 10.8085 12.9455 10.6415 13.0685 10.5185C13.1916 10.3954 13.3585 10.3263 13.5326 10.3263H15.668C15.842 10.3263 16.0089 10.3954 16.132 10.5185C16.2551 10.6415 16.3242 10.8085 16.3242 10.9825ZM14 0.21875C6.40101 0.21875 0.21875 6.40101 0.21875 14C0.21875 21.599 6.40101 27.7812 14 27.7812C21.599 27.7812 27.7812 21.599 27.7812 14C27.7812 6.40101 21.599 0.21875 14 0.21875ZM14 26.4688C7.12469 26.4688 1.53125 20.8753 1.53125 14C1.53125 7.12469 7.12469 1.53125 14 1.53125C20.8753 1.53125 26.4688 7.12469 26.4688 14C26.4688 20.8753 20.8753 26.4688 14 26.4688Z" fill="black"/>
</g>
<defs>
<clipPath id="clip0_841_2398">
<rect width="28" height="28" fill="white"/>
</clipPath>
</defs>
</svg>
