<svg width="16" height="16" viewBox="0 0 16 16" fill="none" xmlns="http://www.w3.org/2000/svg">
<path d="M9.15333 2.34025L10.3267 4.68692C10.4867 5.01359 10.9133 5.32692 11.2733 5.38692L13.4 5.74025C14.76 5.96692 15.08 6.95359 14.1 7.92692L12.4467 9.58025C12.1667 9.86025 12.0133 10.4003 12.1 10.7869L12.5733 12.8336C12.9467 14.4536 12.0867 15.0803 10.6533 14.2336L8.66 13.0536C8.3 12.8403 7.70667 12.8403 7.34 13.0536L5.34667 14.2336C3.92 15.0803 3.05333 14.4469 3.42667 12.8336L3.9 10.7869C3.98667 10.4003 3.83333 9.86025 3.55333 9.58025L1.9 7.92692C0.926667 6.95359 1.24 5.96692 2.6 5.74025L4.72667 5.38692C5.08 5.32692 5.50667 5.01359 5.66667 4.68692L6.84 2.34025C7.48 1.06692 8.52 1.06692 9.15333 2.34025Z" stroke="#EBB02D" stroke-width="1.5" stroke-linecap="round" stroke-linejoin="round"/>
</svg>
